<?xml version="1.0" encoding="utf-8"?>
<!-- Generator: Adobe Illustrator 23.0.1, SVG Export Plug-In . SVG Version: 6.00 Build 0)  -->
<svg version="1.1" id="OBJECTS" xmlns="http://www.w3.org/2000/svg" xmlns:xlink="http://www.w3.org/1999/xlink" x="0px" y="0px"
	 viewBox="0 0 750 356.43" style="enable-background:new 0 0 750 356.43;" xml:space="preserve">
<style type="text/css">
	.st0{fill:#DCA86E;}
	.st1{fill:url(#SVGID_1_);}
	.st2{fill:#2167BE;}
	.st3{fill:url(#SVGID_2_);}
	.st4{fill:#277FD9;}
	.st5{fill:#FEC4AD;}
	.st6{fill:url(#SVGID_3_);}
	.st7{fill:#FF5E69;}
	.st8{fill:url(#SVGID_4_);}
	.st9{fill:#F8D2A1;}
	.st10{fill:none;stroke:#D4DBE2;stroke-width:0.25;stroke-miterlimit:10;}
	.st11{fill:#FFBA01;}
	.st12{fill:#D2DCEB;}
	.st13{fill:none;stroke:#A6AEBA;stroke-width:0.5;stroke-miterlimit:10;}
	.st14{fill:#50CC85;}
	.st15{fill:#77E6A6;}
	.st16{fill:#F3BA7A;}
	.st17{fill:#A6AEBA;}
	.st18{fill:#B6BFCC;}
	.st19{fill:#FFFFFF;}
</style>
<g>
	<g>
		<g>
			<polygon class="st0" points="548.35,241.64 581.21,312.67 584.91,312.66 556.5,237.03 			"/>
			<polygon class="st0" points="514.36,243.16 481.5,312.67 477.79,312.66 506.21,241.58 			"/>
			
				<linearGradient id="SVGID_1_" gradientUnits="userSpaceOnUse" x1="436.2589" y1="288.1947" x2="465.1466" y2="288.1947" gradientTransform="matrix(0.8061 0.5918 -0.5918 0.8061 220.7608 -202.3788)">
				<stop  offset="0" style="stop-color:#343A44"/>
				<stop  offset="0.3009" style="stop-color:#232D3E"/>
				<stop  offset="0.6391" style="stop-color:#182439"/>
				<stop  offset="1" style="stop-color:#142138"/>
			</linearGradient>
			<path class="st1" d="M430.86,297.45l-16.7,14.62l-19.69-13.86c0,0,6.7-2.25,18.19,0.81l11.76-9.88L430.86,297.45z"/>
			<path class="st2" d="M527.55,216.83c0,0-36.91,18.92-49.96,24.58c-13.04,5.66-57.41,50.09-57.41,50.09s5.68,11.57,8.52,9.54
				c25.05-17.91,48.13-33.94,62.96-39.53c29.37-11.07,37.55-13.48,45.08-22.2C536.74,239.31,532.33,228.83,527.55,216.83z"/>
			<g>
				<linearGradient id="SVGID_2_" gradientUnits="userSpaceOnUse" x1="441.1434" y1="299.6152" x2="470.0314" y2="299.6152">
					<stop  offset="0" style="stop-color:#343A44"/>
					<stop  offset="0.3009" style="stop-color:#232D3E"/>
					<stop  offset="0.6391" style="stop-color:#182439"/>
					<stop  offset="1" style="stop-color:#142138"/>
				</linearGradient>
				<path class="st3" d="M470.03,289.99l-4.81,21.67l-24.07,0.48c0,0,4.07-5.78,15.15-10.11l3.63-14.93L470.03,289.99z"/>
				<path class="st4" d="M528.44,212.02c0,0-34.34,3.7-46.86,10.45c-12.52,6.74-22.48,68.56-22.48,68.56s9.72,5.28,10.93,2
					c9.71-26.44,20.48-47.15,20.48-47.15c12.34-2.25,40.91,11.65,61.57-8.69C552.08,237.18,534.22,223.58,528.44,212.02z"/>
			</g>
			<g>
				<path class="st5" d="M587.61,170.28c0,0-2.48,4.11-4.04,9.25l-14.12-1.3c0,0,7.29-11.05,6.73-17.75L587.61,170.28z"/>
				<g>
					<path class="st5" d="M584.58,147.46c-0.8-0.21-3.82-1.04-4.43-0.8c-0.85,0.35,0.14,1.46-0.46,2.13
						c-0.96,1.1-2.9,1.12-4.14,1.79c-1.51,0.81-2.66,1.87-3.35,3.08c-1.15,2.02,3.04,6.53,3.69,9.91
						c1.37,7.07,10.31,8.12,17.57,5.95c2.6-0.77,4.98-3.11,6.4-5.37c1.66-2.66,0.73-7.11-0.67-9.76c-0.84-1.59-2.49-2.96-3.94-3.96
						c-1.31-0.9-1.67-4.66-3.25-4.92C592.01,145.51,586.38,147.93,584.58,147.46z"/>
				</g>
				
					<linearGradient id="SVGID_3_" gradientUnits="userSpaceOnUse" x1="428.5518" y1="106.3564" x2="459.8663" y2="106.3564" gradientTransform="matrix(-0.6574 -0.7535 -0.7535 0.6574 966.1418 421.4139)">
					<stop  offset="0" style="stop-color:#343A44"/>
					<stop  offset="0.3009" style="stop-color:#232D3E"/>
					<stop  offset="0.6391" style="stop-color:#182439"/>
					<stop  offset="1" style="stop-color:#142138"/>
				</linearGradient>
				<path class="st6" d="M604.85,166.44c0.02,0.01-0.24-1.19,1.8-3.12c6.78-6.38-0.47-18.86-7.86-21.03
					c-3.78-1.11-6.19,0.06-7.55-3.69c0.1,0.27-1.53,0.96-1.69,1.09c-0.89,0.75-1.31,1.28-1.34,2.52
					c-0.12,5.45,4.76,10.53,8.45,13.97c1.66,1.54-2.43,0.48-4.07,0.79c-1.07,0.21-3.86,3.14-4.45,3.59
					c1.55,1.93,2.93,0.19,5.02,1.12c1.93,0.86,0.71,3.32-1.09,3.61c-2.79,0.45-3.92-1.39-3.92-1.39c-1.28,0.69-1.48,4.83-2.48,5.91
					c1.38,0.76,9.46,2.18,11.35,2.16C601.07,171.92,603.55,169.68,604.85,166.44z"/>
			</g>
			<path class="st7" d="M587.15,172.48c2.96,33.03-35.07,64.7-35.07,64.7s-24.83,0.93-23.64-25.16c0,0,1.93-4.74,17.31-18.68
				c10.27-9.31,17.49-23.2,24.71-22.92C590.2,171.18,587.15,172.48,587.15,172.48z"/>
			<linearGradient id="SVGID_4_" gradientUnits="userSpaceOnUse" x1="494.9105" y1="209.5032" x2="590.6857" y2="209.5032">
				<stop  offset="0" style="stop-color:#343A44"/>
				<stop  offset="0.3009" style="stop-color:#232D3E"/>
				<stop  offset="0.6391" style="stop-color:#182439"/>
				<stop  offset="1" style="stop-color:#142138"/>
			</linearGradient>
			<path class="st8" d="M494.91,239c0,0,22.9,8.54,53.43-3.04c30.53-11.58,38.85-65.65,38.85-65.65l3.49,1.77
				c0,0-3.4,59.66-43.59,72.63c-30.72,9.91-52.18-1.89-52.18-1.89V239z"/>
			<g>
				<path class="st9" d="M583.48,205.48c0,0,3.66,12.67,3.86,18.99c0.2,6.32-2.5,27.76-2.5,27.76l5.82,0.74
					c0,0,5.17-25.56,5.29-33.9c0.12-8.34-4.69-21.86-4.69-21.86L583.48,205.48z"/>
				<path class="st7" d="M583.12,206.01c4.22,18.45,2.47,43.19,2.47,43.19l6.31,0.4c6.92-14.48,6.27-46.55,2.61-60.05
					c-2.15-7.93-3.42-15.92-8.78-17.16c-3.35-0.77-10.25,1.68-11.18,5C572.55,184.59,581.04,196.96,583.12,206.01z"/>
				<path class="st9" d="M582.24,255.42c-1.39,2.65-2.02,4.6-1.2,5.27c0.57,0.46,1.48-2.11,2.58-3.03c0.32,1.07,0.37,3.08-0.32,4.77
					c-0.78,1.91-0.71,3.55,0.74,3.69c1.45,0.14,3.82,0.05,4.34-1.16c0.53-1.2,1.72-6.23,2.37-7.9c0.65-1.67-0.21-3.59,0.04-4.55
					c0.25-0.96-4.29-2.56-4.29-2.56c-0.25,0.38-1.65,2.29-1.65,2.29s-1.18,1.41-1.58,1.67
					C582.85,254.15,582.24,255.42,582.24,255.42z"/>
			</g>
		</g>
		<g>
			<line class="st10" x1="547.78" y1="-3.97" x2="547.78" y2="40.03"/>
			<path class="st11" d="M555.57,56.95c-0.33,4.25-4.04,7.43-8.29,7.1c-4.25-0.33-7.43-4.04-7.1-8.29c0.33-4.25,4.04-7.43,8.29-7.1
				C552.72,48.99,555.9,52.7,555.57,56.95z"/>
			<polygon class="st12" points="584.22,59.63 511.35,59.63 543.24,36.42 552.33,36.42 			"/>
		</g>
		<g>
			<line class="st10" x1="204.72" y1="-3.97" x2="204.72" y2="40.03"/>
			<path class="st11" d="M212.51,56.95c-0.33,4.25-4.04,7.43-8.29,7.1c-4.25-0.33-7.43-4.04-7.1-8.29c0.33-4.25,4.04-7.43,8.29-7.1
				C209.66,48.99,212.84,52.7,212.51,56.95z"/>
			<polygon class="st12" points="241.15,59.63 168.28,59.63 200.17,36.42 209.26,36.42 			"/>
		</g>
		<line class="st13" x1="125.84" y1="312.32" x2="624.16" y2="312.32"/>
		<g>
			<g>
				<g>
					<path class="st14" d="M306.99,159.23c0,0,1.54-3.76,4.33-7.12c2.79-3.35,6.96-8.94,6.96-8.94s-2.03,3.97-4.79,8.46
						C310.73,156.13,306.99,159.23,306.99,159.23z"/>
					<path class="st14" d="M309.88,152.69c0,0,3.09-2.43,4.95-7.57c1.86-5.14,3.55-9.06,3.55-9.06s-4.01,5.74-5.74,9.71
						C310.92,149.75,309.88,152.69,309.88,152.69z"/>
					<path class="st14" d="M307.2,158.5c0,0,1.62-5.88,1.94-10.58c0.32-4.7,0.28-7.64,0.28-7.64s-2.04,8.52-2.66,12.14
						C306.14,156.04,307.2,158.5,307.2,158.5z"/>
					<path class="st14" d="M305.81,162.41c0,0,0.52-6.06-1.19-11.48c-1.7-5.42-1.8-8.86-1.8-8.86s-0.82,5.67,0.15,10.56
						C303.95,157.53,305.81,162.41,305.81,162.41z"/>
					<path class="st14" d="M306.31,161.07c0,0,4.3-3.67,6.48-4.54c2.18-0.86,5.2-3.38,5.2-3.38s-3.74,4.79-5.83,5.73
						C310.08,159.83,306.31,161.07,306.31,161.07z"/>
					<path class="st14" d="M304.83,166.21c0,0,0.42-3.31-1.51-8c-1.92-4.69-2.37-7.01-2.37-7.01s-0.11,6.36,1.15,8.75
						C303.37,162.35,304.83,166.21,304.83,166.21z"/>
					<path class="st14" d="M305.23,163.8c0,0,2.47-1.65,4.86-1.98s3.02-0.66,3.02-0.66s-1.21,2.2-4.15,2.57
						C306.02,164.11,305.23,163.8,305.23,163.8z"/>
					<path class="st14" d="M303.61,169.37c0.53-2.08,1.22-5.3,1.93-7.44c1.57-4.74,5.29-10.85,5.29-10.85
						c-2.27,5.04-3.94,7.88-5.08,12.23c-0.45,1.72-1.24,4.12-1.66,5.68C304.03,169.41,303.68,169.77,303.61,169.37z"/>
				</g>
				<g>
					<path class="st15" d="M304.71,160.93c0,0-0.24-4.31-1.89-8.65c-1.65-4.34-3.9-11.39-3.9-11.39s0.67,4.7,1.88,10.16
						C302.02,156.52,304.71,160.93,304.71,160.93z"/>
					<path class="st15" d="M304.07,153.35c0,0-2.27-3.51-2.36-9.32c-0.09-5.81-0.43-10.33-0.43-10.33s2.05,7.16,2.4,11.75
						C304.04,150.04,304.07,153.35,304.07,153.35z"/>
					<path class="st15" d="M304.75,160.12c0,0,0.41-6.47,1.71-11.3c1.31-4.83,2.36-7.78,2.36-7.78s-0.9,9.27-1.53,13.12
						C306.66,158.01,304.75,160.12,304.75,160.12z"/>
					<path class="st15" d="M304.79,164.53c0,0,1.58-6.27,5.16-11.13c3.59-4.86,4.87-8.28,4.87-8.28s-1.14,5.99-3.81,10.57
						C308.35,160.26,304.79,164.53,304.79,164.53z"/>
					<path class="st15" d="M304.75,163.01c0,0-3.05-5.18-4.94-6.8c-1.89-1.62-4.06-5.2-4.06-5.2s2.1,6.1,3.87,7.78
						C301.39,160.46,304.75,163.01,304.75,163.01z"/>
					<path class="st15" d="M304.47,168.69c0,0,0.73-3.47,4.28-7.52c3.55-4.05,4.8-6.22,4.8-6.22s-2.09,6.44-4.18,8.4
						C307.27,165.31,304.47,168.69,304.47,168.69z"/>
					<path class="st15" d="M304.9,166.13c0,0-1.91-2.51-4.2-3.68c-2.28-1.16-2.81-1.71-2.81-1.71s0.45,2.63,3.28,4.02
						C304,166.16,304.9,166.13,304.9,166.13z"/>
					<path class="st14" d="M304.6,172.28c0.18-2.28,0.6-5.75,0.63-8.15c0.07-5.31-1.56-12.74-1.56-12.74
						c0.54,5.86,1.23,9.28,0.87,14.05c-0.14,1.89-0.18,4.57-0.3,6.28C304.17,172.19,304.39,172.67,304.6,172.28z"/>
				</g>
				<g>
					<path class="st14" d="M301.44,161.82c0,0-1.54-3.76-4.33-7.12c-2.79-3.35-6.96-8.94-6.96-8.94s2.03,3.97,4.79,8.46
						C297.7,158.72,301.44,161.82,301.44,161.82z"/>
					<path class="st14" d="M298.55,155.28c0,0-3.09-2.43-4.95-7.57c-1.86-5.14-3.55-9.06-3.55-9.06s4.01,5.74,5.74,9.71
						C297.51,152.34,298.55,155.28,298.55,155.28z"/>
					<path class="st14" d="M301.23,161.09c0,0-1.62-5.88-1.94-10.58c-0.32-4.7-0.28-7.64-0.28-7.64s2.04,8.52,2.66,12.14
						C302.28,158.63,301.23,161.09,301.23,161.09z"/>
					<path class="st14" d="M302.61,165c0,0-0.52-6.06,1.18-11.48c1.7-5.42,1.8-8.86,1.8-8.86s0.82,5.67-0.15,10.56
						C304.47,160.12,302.61,165,302.61,165z"/>
					<path class="st14" d="M302.11,163.66c0,0-4.3-3.67-6.48-4.54c-2.18-0.86-5.2-3.38-5.2-3.38s3.74,4.79,5.83,5.73
						C298.34,162.42,302.11,163.66,302.11,163.66z"/>
					<path class="st14" d="M303.6,168.8c0,0-0.42-3.31,1.51-8c1.92-4.69,2.37-7.01,2.37-7.01s0.11,6.36-1.15,8.75
						C305.06,164.94,303.6,168.8,303.6,168.8z"/>
					<path class="st14" d="M303.2,166.39c0,0-2.47-1.65-4.86-1.98c-2.38-0.33-3.02-0.66-3.02-0.66s1.21,2.2,4.15,2.57
						C302.41,166.7,303.2,166.39,303.2,166.39z"/>
					<path class="st14" d="M304.81,171.96c-0.53-2.08-1.22-5.3-1.93-7.44c-1.57-4.74-5.29-10.85-5.29-10.85
						c2.27,5.04,3.94,7.88,5.08,12.23c0.45,1.72,1.24,4.12,1.66,5.68C304.4,172,304.74,172.36,304.81,171.96z"/>
				</g>
				<polygon class="st12" points="310.28,186.48 298.61,186.48 295.01,165.93 314.3,165.93 				"/>
			</g>
			<g>
				<g>
					<polygon class="st0" points="443.57,192.13 462.81,312.43 466.52,312.42 451.29,192.1 					"/>
					<polygon class="st0" points="310.93,192.18 285.87,312.61 280.89,312.62 300.53,192.21 					"/>
				</g>
				<rect x="271.49" y="185.1" class="st0" width="207.03" height="9.27"/>
				<rect x="261.56" y="185.1" class="st16" width="226.88" height="6.15"/>
			</g>
			<g>
				<g>
					<polygon class="st17" points="424.99,181.85 416.94,181.85 408.89,130.48 415.01,130.48 					"/>
					<polygon class="st12" points="422.68,181.85 391.25,181.85 383.2,130.48 414.63,130.48 					"/>
					<rect x="390.83" y="180.69" class="st12" width="34.16" height="3.83"/>
					<rect x="424.99" y="180.69" class="st17" width="43.07" height="3.83"/>
					<path class="st17" d="M405.42,158.66c0.91,3.93,0.27,8.18-1.43,9.49c-1.7,1.31-3.81-0.82-4.72-4.76
						c-0.91-3.93-0.27-8.18,1.43-9.49C402.4,152.6,404.51,154.73,405.42,158.66z"/>
				</g>
			</g>
			<g>
				<path class="st17" d="M356.53,184.34h-4.46c-1.84,0-3.41-1.34-3.69-3.16l-1.78-11.47h15.4l-1.78,11.47
					C359.94,183,358.38,184.34,356.53,184.34z"/>
				<g>
					<path class="st17" d="M360.66,181.9c-0.16,0-0.32-0.01-0.49-0.02l-0.21-0.02l-0.17-0.13c-0.11-0.08-2.71-2.12-2.71-5.04
						c0-2.98,1.98-5.41,4.42-5.41c1.47,0,2.78,0.56,3.59,1.52c0.58,0.69,1.19,1.95,0.82,4.01l0,0
						C365.33,180.07,363.42,181.9,360.66,181.9z M360.5,180.49c2.81,0.09,3.7-2.07,4.03-3.92l0,0c0.22-1.23,0.05-2.19-0.52-2.86
						c-0.54-0.65-1.46-1.02-2.51-1.02c-1.66,0-3.02,1.8-3.02,4.01C358.49,178.56,360,180.05,360.5,180.49z"/>
				</g>
			</g>
			<polygon class="st12" points="345.07,185.35 364.59,185.35 367.7,181.9 341.96,181.9 			"/>
		</g>
		<g>
			<rect x="148.23" y="110.36" class="st18" width="93.4" height="202.04"/>
			<rect x="158.98" y="119.19" class="st12" width="71.9" height="21.18"/>
			<path class="st19" d="M203.53,132.35h-17.2c-0.44,0-0.8-0.36-0.8-0.8v-3.54c0-0.44,0.36-0.8,0.8-0.8h17.2
				c0.44,0,0.8,0.36,0.8,0.8v3.54C204.33,131.99,203.97,132.35,203.53,132.35z"/>
			<rect x="158.98" y="146.14" class="st12" width="71.9" height="21.18"/>
			<path class="st19" d="M203.53,159.3h-17.2c-0.44,0-0.8-0.36-0.8-0.8v-3.54c0-0.44,0.36-0.8,0.8-0.8h17.2c0.44,0,0.8,0.36,0.8,0.8
				v3.54C204.33,158.95,203.97,159.3,203.53,159.3z"/>
			<rect x="158.98" y="173.1" class="st12" width="71.9" height="21.18"/>
			<path class="st19" d="M203.53,186.26h-17.2c-0.44,0-0.8-0.36-0.8-0.8v-3.54c0-0.44,0.36-0.8,0.8-0.8h17.2
				c0.44,0,0.8,0.36,0.8,0.8v3.54C204.33,185.91,203.97,186.26,203.53,186.26z"/>
			<rect x="158.98" y="200.37" class="st12" width="71.9" height="103.84"/>
			<path class="st19" d="M203.53,213.53h-17.2c-0.44,0-0.8-0.36-0.8-0.8v-3.54c0-0.44,0.36-0.8,0.8-0.8h17.2
				c0.44,0,0.8,0.36,0.8,0.8v3.54C204.33,213.17,203.97,213.53,203.53,213.53z"/>
		</g>
	</g>
</g>
</svg>
